<svg width="32" height="12" viewBox="0 0 32 12" fill="none" xmlns="http://www.w3.org/2000/svg">
<path d="M27.0308 1.70985C25.9258 0.607286 24.4565 2.57492e-05 22.8937 2.57492e-05H22.8936C21.3309 2.57492e-05 19.8616 0.607341 18.7567 1.70979L18.4773 1.98837L19.4419 2.95063L19.7211 2.67205C20.5685 1.82659 21.6952 1.3609 22.8937 1.3609C24.0921 1.3609 25.2188 1.82659 26.0663 2.67216L29.2391 5.83745L26.0663 9.00296C24.3169 10.7483 21.4705 10.7483 19.7211 9.0029L16.0662 5.35632L12.4114 1.70985C10.1302 -0.566196 6.41845 -0.566197 4.13717 1.70979L0 5.83745L4.13717 9.96521C5.24224 11.0677 6.71154 11.6749 8.27433 11.6749C9.83702 11.6749 11.3064 11.0677 12.4114 9.96521L12.6906 9.68664L11.726 8.72432L11.4469 9.0029C10.5994 9.84848 9.47279 10.3141 8.27433 10.3141C7.07588 10.3141 5.94911 9.84848 5.10167 9.0029L1.92895 5.83745L5.10161 2.67205C6.85106 0.926683 9.69755 0.926683 11.4469 2.6721L15.1018 6.31863L18.7566 9.96521C19.8973 11.1034 21.3952 11.6721 22.8937 11.6721C24.3918 11.6721 25.8904 11.1031 27.0308 9.96521L31.168 5.83745L27.0308 1.70985Z" fill="black"/>
<path d="M25.1019 3.63435C24.5128 3.04654 23.7286 2.7228 22.8937 2.7228C22.0588 2.72291 21.2746 3.04654 20.6855 3.6343L19.4419 4.87513L14.5556 -3.62396e-05H12.6267L19.4419 6.7997L21.65 4.59661C21.9815 4.26584 22.4232 4.08367 22.8937 4.08373C23.3642 4.08367 23.806 4.26584 24.1373 4.59661L25.381 5.83739L24.1373 7.07822C23.806 7.40899 23.3642 7.5911 22.8937 7.5911C22.4233 7.5911 21.9816 7.40899 21.65 7.07822L20.6855 8.04059C21.2747 8.62829 22.0588 8.95203 22.8937 8.95203C23.7285 8.95203 24.5128 8.62824 25.1019 8.04048L27.31 5.83739L25.1019 3.63435Z" fill="black"/>
<path d="M18.5412 11.6749L11.726 4.87525L9.51783 7.07834C9.18636 7.40911 8.74466 7.59122 8.27411 7.59122C7.80362 7.59122 7.36186 7.40911 7.0304 7.07834L5.78679 5.83745L7.0304 4.59667C7.36197 4.2659 7.80362 4.08379 8.27417 4.08379C8.74466 4.08379 9.18631 4.2659 9.51783 4.59667L10.4823 3.63436C9.89318 3.0466 9.109 2.72286 8.27417 2.72286C8.27411 2.72286 8.27417 2.72286 8.27411 2.72297C7.43928 2.72286 6.65499 3.04665 6.06595 3.63441L3.85779 5.83745L6.06595 8.04065C6.65499 8.62846 7.43922 8.95209 8.27417 8.95209C9.109 8.95209 9.89323 8.62835 10.4823 8.04065L11.726 6.79976L16.6122 11.6749H18.5412Z" fill="black"/>
</svg>
