<svg width="13" height="15" viewBox="0 0 13 15" fill="none" xmlns="http://www.w3.org/2000/svg">
<path d="M6.20462 4.30985C5.61212 4.30985 4.69496 3.63618 3.7291 3.66053C2.45481 3.67676 1.28604 4.39913 0.628606 5.54355C-0.694379 7.84052 0.287714 11.2332 1.57823 13.1C2.21132 14.009 2.95803 15.0317 3.94824 14.9992C4.89787 14.9587 5.255 14.3824 6.40754 14.3824C7.55196 14.3824 7.87662 14.9992 8.88306 14.9749C9.90574 14.9587 10.5551 14.0496 11.18 13.1325C11.9024 12.0773 12.2027 11.0546 12.2189 10.9978C12.1946 10.9897 10.2304 10.2349 10.206 7.96226C10.1898 6.06301 11.7563 5.15396 11.8293 5.11338C10.9365 3.80663 9.56485 3.66053 9.08597 3.62807C7.83604 3.53067 6.78901 4.30985 6.20462 4.30985ZM8.31491 2.39436C8.84248 1.76128 9.19149 0.876579 9.09409 0C8.33926 0.0324659 7.43021 0.503222 6.88641 1.13631C6.39942 1.69634 5.97736 2.59727 6.09099 3.45762C6.92699 3.52255 7.78734 3.02745 8.31491 2.39436Z" fill="black"/>
</svg>
