<svg width="17" height="19" viewBox="0 0 17 19" fill="none" xmlns="http://www.w3.org/2000/svg">
<path fill-rule="evenodd" clip-rule="evenodd" d="M13.0333 0C13.3461 0 13.6 0.250355 13.6 0.558828V1.11765H15.3C16.2373 1.11765 17 1.86983 17 2.79412V19H0V2.79412C0 1.86983 0.762729 1.11765 1.7 1.11765H3.39999V0.558828C3.39999 0.250355 3.65387 0 3.96666 0C4.27947 0 4.53334 0.250355 4.53334 0.558828V1.11765H12.4667V0.558828C12.4667 0.250355 12.7205 0 13.0333 0ZM14.7333 12.2941H11.3334V15.6471H14.7333V12.2941ZM10.2 12.2941H6.8V15.6471H10.2V12.2941ZM5.66667 12.2941H2.26666V15.6471H5.66667V12.2941ZM14.7333 7.82353H11.3334V11.1765H14.7333V7.82353ZM10.2 7.82353H6.8V11.1765H10.2V7.82353ZM5.66667 7.82353H2.26666V11.1765H5.66667V7.82353ZM3.39999 2.23529H1.7C1.38833 2.23529 1.13334 2.48565 1.13334 2.79412V4.47059H15.8667V2.79412C15.8667 2.48565 15.6117 2.23529 15.3 2.23529H13.6V2.79412C13.6 3.10259 13.3461 3.35295 13.0333 3.35295C12.7205 3.35295 12.4667 3.10259 12.4667 2.79412V2.23529H4.53334V2.79412C4.53334 3.10259 4.27947 3.35295 3.96666 3.35295C3.65387 3.35295 3.39999 3.10259 3.39999 2.79412V2.23529Z" fill="black"/>
</svg>
