<svg width="21" height="8" viewBox="0 0 21 8" fill="none" xmlns="http://www.w3.org/2000/svg">
<path d="M18.0668 1.14278C17.3282 0.405857 16.3462 -2.28882e-05 15.3017 -2.28882e-05H15.3016C14.2571 -2.28882e-05 13.2751 0.405893 12.5365 1.14275L12.3498 1.32894L12.9945 1.97209L13.1811 1.7859C13.7475 1.22081 14.5006 0.909553 15.3017 0.909553C16.1026 0.909553 16.8557 1.22081 17.4222 1.78597L19.5427 3.90158L17.4222 6.01734C16.2529 7.18387 14.3504 7.1839 13.1811 6.0173L10.7383 3.58001L8.29554 1.14278C6.77081 -0.378473 4.28995 -0.378473 2.76519 1.14275L0 3.90158L2.76519 6.66049C3.5038 7.39738 4.48584 7.80322 5.53038 7.80322C6.57484 7.80322 7.55697 7.39738 8.29554 6.66049L8.48212 6.47429L7.83743 5.83111L7.65088 6.0173C7.08443 6.58246 6.3314 6.89365 5.53038 6.89365C4.72936 6.89365 3.97625 6.58246 3.40984 6.0173L1.28927 3.90158L3.40981 1.7859C4.5791 0.619335 6.48163 0.619335 7.65088 1.78593L10.0937 4.22319L12.5365 6.66049C13.2989 7.42121 14.3001 7.80135 15.3017 7.80135C16.303 7.80135 17.3045 7.42103 18.0668 6.66049L20.832 3.90158L18.0668 1.14278Z" fill="#AAAAAA"/>
<path d="M16.7775 2.42906C16.3838 2.03618 15.8597 1.8198 15.3017 1.8198C14.7436 1.81987 14.2195 2.03618 13.8258 2.42902L12.9945 3.25837L9.72865 -8.39233e-05H8.43942L12.9945 4.54471L14.4704 3.07221C14.692 2.85113 14.9872 2.72938 15.3017 2.72941C15.6162 2.72938 15.9114 2.85113 16.1328 3.07221L16.9641 3.90152L16.1328 4.73087C15.9114 4.95194 15.6162 5.07366 15.3017 5.07366C14.9872 5.07366 14.692 4.95194 14.4704 4.73087L13.8258 5.37409C14.2195 5.7669 14.7436 5.98328 15.3017 5.98328C15.8596 5.98328 16.3838 5.76686 16.7775 5.37402L18.2534 3.90152L16.7775 2.42906Z" fill="#AAAAAA"/>
<path d="M12.3926 7.80322L7.83747 3.25847L6.36158 4.73096C6.14004 4.95204 5.84482 5.07376 5.53031 5.07376C5.21584 5.07376 4.92058 4.95204 4.69904 4.73096L3.86784 3.90158L4.69904 3.07227C4.92066 2.85119 5.21584 2.72947 5.53035 2.72947C5.84482 2.72947 6.14 2.85119 6.36158 3.07227L7.0062 2.42908C6.61246 2.03624 6.08833 1.81986 5.53035 1.81986C5.53031 1.81986 5.53035 1.81986 5.53031 1.81993C4.97233 1.81986 4.44813 2.03628 4.05442 2.42912L2.57854 3.90158L4.05442 5.37415C4.44813 5.76703 4.97229 5.98334 5.53035 5.98334C6.08833 5.98334 6.6125 5.76696 7.0062 5.37415L7.83747 4.54477L11.1033 7.80322H12.3926Z" fill="#AAAAAA"/>
</svg>
