<svg width="15" height="15" viewBox="0 0 15 15" fill="none" xmlns="http://www.w3.org/2000/svg">
<path d="M0.798 4.1325C1.42201 2.88993 2.37928 1.84538 3.56282 1.1156C4.74637 0.38582 6.10955 -0.000437676 7.5 3.72173e-07C9.52125 3.72173e-07 11.2192 0.7425 12.5175 1.95375L10.3672 4.10475C9.5895 3.3615 8.601 2.98275 7.5 2.98275C5.54625 2.98275 3.8925 4.30275 3.30375 6.075C3.15375 6.525 3.06825 7.005 3.06825 7.5C3.06825 7.995 3.15375 8.475 3.30375 8.925C3.89325 10.698 5.54625 12.0172 7.5 12.0172C8.50875 12.0172 9.3675 11.751 10.0395 11.301C10.4291 11.0445 10.7626 10.7117 11.0199 10.3226C11.2772 9.93357 11.4529 9.49639 11.5365 9.0375H7.5V6.1365H14.5635C14.652 6.627 14.7 7.1385 14.7 7.67025C14.7 9.95475 13.8825 11.8777 12.4635 13.1827C11.223 14.3287 9.525 15 7.5 15C6.51498 15.0004 5.53953 14.8067 4.62941 14.4299C3.71929 14.0531 2.89234 13.5007 2.19582 12.8042C1.4993 12.1077 0.946872 11.2807 0.570101 10.3706C0.19333 9.46047 -0.000393646 8.48503 6.00536e-07 7.5C6.00536e-07 6.2895 0.289501 5.145 0.798 4.1325Z" fill="black"/>
</svg>
