<svg width="36" height="36" viewBox="0 0 36 36" fill="none" xmlns="http://www.w3.org/2000/svg">
<path d="M17.896 0.774658C8.35763 0.774658 0.624023 8.49069 0.624023 18.0074C0.624023 27.5241 8.35763 35.2402 17.896 35.2402C27.4343 35.2402 35.168 27.5241 35.168 18.0074C35.168 8.49069 27.4343 0.774658 17.896 0.774658ZM24.3097 18.2025L14.5942 23.9879C14.5247 24.0301 14.4361 24.0321 14.3644 23.99C14.2949 23.95 14.2506 23.8754 14.2506 23.7923V18.0068V12.2213C14.2506 12.1393 14.2949 12.0636 14.3644 12.0235C14.4361 11.9825 14.5247 11.9846 14.5942 12.0256L24.3097 17.8122C24.3793 17.8516 24.4205 17.9278 24.4205 18.0067C24.4205 18.0873 24.3794 18.162 24.3097 18.2025Z" fill="black"/>
</svg>
