<svg width="16" height="16" viewBox="0 0 16 16" fill="none" xmlns="http://www.w3.org/2000/svg">
<path d="M16 8C16 8.19289 15.9234 8.37787 15.787 8.51426C15.6506 8.65065 15.4656 8.72727 15.2727 8.72727H12.6647L14.3324 10.3949C14.4648 10.5321 14.5381 10.7158 14.5365 10.9065C14.5348 11.0972 14.4583 11.2796 14.3235 11.4144C14.1887 11.5493 14.0063 11.6257 13.8156 11.6274C13.6249 11.6291 13.4412 11.5558 13.304 11.4233L10.608 8.72727H8.72727V10.608L11.4233 13.304C11.5558 13.4412 11.6291 13.6249 11.6274 13.8156C11.6257 14.0063 11.5493 14.1887 11.4144 14.3235C11.2796 14.4583 11.0972 14.5348 10.9065 14.5365C10.7158 14.5381 10.5321 14.4648 10.3949 14.3324L8.72727 12.6647V15.2727C8.72727 15.4656 8.65065 15.6506 8.51426 15.787C8.37787 15.9234 8.19289 16 8 16C7.80712 16 7.62213 15.9234 7.48574 15.787C7.34935 15.6506 7.27273 15.4656 7.27273 15.2727V12.6647L5.60509 14.3324C5.538 14.4018 5.45775 14.4572 5.36902 14.4953C5.28029 14.5335 5.18486 14.5535 5.08829 14.5544C4.99173 14.5552 4.89596 14.5368 4.80658 14.5002C4.7172 14.4637 4.636 14.4097 4.56771 14.3414C4.49943 14.2731 4.44543 14.1919 4.40886 14.1025C4.37229 14.0131 4.35389 13.9174 4.35473 13.8208C4.35557 13.7242 4.37563 13.6288 4.41374 13.5401C4.45186 13.4513 4.50727 13.3711 4.57673 13.304L7.27273 10.608V8.72727H5.392L2.696 11.4233C2.55883 11.5558 2.37512 11.6291 2.18444 11.6274C1.99375 11.6257 1.81134 11.5493 1.6765 11.4144C1.54165 11.2796 1.46517 11.0972 1.46351 10.9065C1.46185 10.7158 1.53516 10.5321 1.66764 10.3949L3.33527 8.72727H0.727273C0.534388 8.72727 0.349403 8.65065 0.213013 8.51426C0.0766231 8.37787 0 8.19289 0 8C0 7.80712 0.0766231 7.62213 0.213013 7.48574C0.349403 7.34935 0.534388 7.27273 0.727273 7.27273H3.33527L1.66764 5.60509C1.59817 5.538 1.54277 5.45775 1.50465 5.36902C1.46654 5.28029 1.44648 5.18486 1.44564 5.08829C1.4448 4.99173 1.4632 4.89596 1.49977 4.80658C1.53633 4.7172 1.59034 4.636 1.65862 4.56771C1.72691 4.49943 1.80811 4.44543 1.89749 4.40886C1.98687 4.37229 2.08263 4.35389 2.1792 4.35473C2.27577 4.35557 2.3712 4.37563 2.45993 4.41374C2.54866 4.45186 2.62891 4.50727 2.696 4.57673L5.392 7.27273H7.27273V5.392L4.57673 2.696C4.50727 2.62891 4.45186 2.54866 4.41374 2.45993C4.37563 2.3712 4.35557 2.27577 4.35473 2.1792C4.35389 2.08263 4.37229 1.98687 4.40886 1.89749C4.44543 1.80811 4.49943 1.72691 4.56771 1.65862C4.636 1.59034 4.7172 1.53633 4.80658 1.49977C4.89596 1.4632 4.99173 1.4448 5.08829 1.44564C5.18486 1.44648 5.28029 1.46654 5.36902 1.50465C5.45775 1.54277 5.538 1.59817 5.60509 1.66764L7.27273 3.33527V0.727273C7.27273 0.534388 7.34935 0.349403 7.48574 0.213013C7.62213 0.0766231 7.80712 0 8 0C8.19289 0 8.37787 0.0766231 8.51426 0.213013C8.65065 0.349403 8.72727 0.534388 8.72727 0.727273V3.33527L10.3949 1.66764C10.462 1.59817 10.5422 1.54277 10.631 1.50465C10.7197 1.46654 10.8151 1.44648 10.9117 1.44564C11.0083 1.4448 11.104 1.4632 11.1934 1.49977C11.2828 1.53633 11.364 1.59034 11.4323 1.65862C11.5006 1.72691 11.5546 1.80811 11.5911 1.89749C11.6277 1.98687 11.6461 2.08263 11.6453 2.1792C11.6444 2.27577 11.6244 2.3712 11.5863 2.45993C11.5481 2.54866 11.4927 2.62891 11.4233 2.696L8.72727 5.392V7.27273H10.608L13.304 4.57673C13.3711 4.50727 13.4513 4.45186 13.5401 4.41374C13.6288 4.37563 13.7242 4.35557 13.8208 4.35473C13.9174 4.35389 14.0131 4.37229 14.1025 4.40886C14.1919 4.44543 14.2731 4.49943 14.3414 4.56771C14.4097 4.636 14.4637 4.7172 14.5002 4.80658C14.5368 4.89596 14.5552 4.99173 14.5544 5.08829C14.5535 5.18486 14.5335 5.28029 14.4953 5.36902C14.4572 5.45775 14.4018 5.538 14.3324 5.60509L12.6647 7.27273H15.2727C15.4656 7.27273 15.6506 7.34935 15.787 7.48574C15.9234 7.62213 16 7.80712 16 8Z" fill="black"/>
</svg>
